<svg fill="#FFFFFF" version="1.1" id="Layer_1" xmlns="http://www.w3.org/2000/svg" xmlns:xlink="http://www.w3.org/1999/xlink" viewBox="0 0 244 256" enable-background="new 0 0 244 256" xml:space="preserve"><g id="SVGRepo_bgCarrier" stroke-width="0"></g><g id="SVGRepo_tracerCarrier" stroke-linecap="round" stroke-linejoin="round"></g><g id="SVGRepo_iconCarrier"> <path d="M133.781,2c20.372,0,36.888,16.515,36.888,36.888s-16.515,36.888-36.888,36.888S96.893,59.26,96.893,38.888 S113.408,2,133.781,2z M236.319,219.99l-59.499-59.315l20.221,5.095c1.454,0.366,2.909,0.541,4.342,0.541 c7.926,0,15.144-5.358,17.169-13.395c2.391-9.49-3.364-19.121-12.853-21.512l-59.028-14.871c0,0-49.027-49.344-51.748-52.032 c-10.388-10.263-28.497-14.697-43.508,3.387C33.644,89.297,1.893,162.694,1.893,207.654C1.893,233.25,22.643,254,48.239,254 c12.105,0,22.133-5.969,27.241-10.038l71.886-57.048l61.152,60.963c3.843,3.831,8.871,5.745,13.9,5.745 c5.048,0,10.097-1.93,13.944-5.788C244.039,240.133,244.019,227.667,236.319,219.99z M100.117,120.179l22.609,22.712 c2.612,2.624,5.71,4.689,9.095,6.109l-48.014,37.49C87.315,157.998,93.913,137.668,100.117,120.179z"></path> </g></svg>